<?xml version="1.0" encoding="utf-8"?>
<!-- Generator: Adobe Illustrator 26.0.2, SVG Export Plug-In . SVG Version: 6.00 Build 0)  -->
<svg version="1.1" id="Warstwa_1" xmlns="http://www.w3.org/2000/svg" xmlns:xlink="http://www.w3.org/1999/xlink" x="0px" y="0px"
	 viewBox="0 0 109 109" style="enable-background:new 0 0 109 109;" xml:space="preserve">
<style type="text/css">
	.st0{fill:#23262D;}
	.st1{fill:#F6D601;}
</style>
<g id="Ellipse_1">
	<g>
		<path class="st0" d="M54.5,105.83c-28.3,0-51.33-23.02-51.33-51.33C3.17,26.2,26.2,3.17,54.5,3.17c28.3,0,51.32,23.02,51.32,51.32
			C105.82,82.8,82.8,105.83,54.5,105.83z"/>
	</g>
	<g>
		<path class="st1" d="M54.5,6.35c26.55,0,48.15,21.6,48.15,48.15c0,26.55-21.6,48.15-48.15,48.15S6.35,81.05,6.35,54.5
			C6.35,27.95,27.95,6.35,54.5,6.35 M54.5,0C24.4,0,0,24.4,0,54.5C0,84.6,24.4,109,54.5,109c30.1,0,54.5-24.4,54.5-54.5
			C109,24.4,84.6,0,54.5,0L54.5,0z"/>
	</g>
</g>
</svg>
